#N canvas 104 344 1331 912 12;
#X obj 266 230 osc~ 440;
#X obj 347 314 *~;
#X obj 347 393 dac~;
#X obj 406 231 hsl 162 19 0 1 0 0 empty empty empty -2 -10 0 12 #fcfcfc #000000 #000000 0 1;
#X text 414 208 Volume;
#X obj 400 112 + 1;
#X floatatom 350 154 5 0 0 0 - - - 0;
#X obj 328 73 metro 3000 1 msec;
#X obj 184 52 bng 19 250 50 0 empty empty empty 0 -10 0 12 #fcfcfc #000000 #000000;
#X msg 290 114 0;
#X msg 408 306 1;
#X obj 396 357 *~;
#X obj 354 198 == 0;
#X text 101 51 Play Note:;
#X obj 349 110 int;
#X connect 0 0 1 0;
#X connect 1 0 11 1;
#X connect 3 0 1 1;
#X connect 5 0 14 1;
#X connect 6 0 12 0;
#X connect 7 0 14 0;
#X connect 8 0 7 0;
#X connect 8 0 9 0;
#X connect 9 0 14 0;
#X connect 11 0 2 0;
#X connect 12 0 11 0;
#X connect 14 0 5 0;
#X connect 14 0 6 0;
