#N canvas 284 230 1436 1725 12;
#X obj 433 668 *~;
#X obj 433 747 dac~;
#X obj 997 219 hsl 162 19 0 1 0 0 empty empty empty -2 -10 0 12 #fcfcfc #000000 #000000 0 1;
#X text 1005 196 Volume;
#X obj 482 711 *~;
#X obj 269 423 / 12;
#X obj 190 328 nbx 5 17 1 127 0 0 empty empty empty 0 -10 0 12 #fcfcfc #000000 #000000 0 256;
#X obj 269 459 pow;
#X msg 217 440 2, f 4;
#X obj 269 397 - 21;
#X obj 269 498 * 27.5;
#X floatatom 216 215 5 0 0 0 - - - 0;
#X text 134 216 Note Value;
#X obj 305 132 list split 1;
#X floatatom 329 216 5 0 0 0 - - - 0;
#X text 264 215 Duration;
#X listbox 486 216 20 0 0 0 - - - 0;
#X text 380 216 Remaining List;
#X obj 420 268 delay;
#X obj 442 301 list;
#X obj 216 80 list split 1;
#X floatatom 302 541 5 0 0 0 - - - 0;
#X obj 352 584 osc~;
#X msg 217 34 list 60 1000 62 1000 64 500 65 500 67 1000 69 1000 71 2000 72 1000 0 1000;
#X obj 1046 151 bng 19 250 50 0 empty empty empty 0 -10 0 12 #fcfcfc #000000 #000000;
#X text 997 152 Start;
#X text 226 540 Frequency;
#X connect 0 0 4 0;
#X connect 2 0 4 1;
#X connect 4 0 1 0;
#X connect 5 0 7 1;
#X connect 6 0 8 0;
#X connect 6 0 9 0;
#X connect 7 0 10 0;
#X connect 8 0 7 0;
#X connect 9 0 5 0;
#X connect 10 0 21 0;
#X connect 11 0 6 0;
#X connect 13 0 14 0;
#X connect 13 1 16 0;
#X connect 14 0 18 0;
#X connect 16 0 19 1;
#X connect 18 0 19 0;
#X connect 19 0 20 0;
#X connect 20 0 11 0;
#X connect 20 1 13 0;
#X connect 21 0 22 0;
#X connect 22 0 0 0;
#X connect 23 0 20 0;
#X connect 24 0 23 0;
